<svg width="30" height="30" viewBox="0 0 30 30" fill="none" xmlns="http://www.w3.org/2000/svg">
<path opacity="0.25" d="M25.2875 9.05001L15 15L4.71252 9.05001C4.92371 8.68438 5.22493 8.37886 5.58752 8.16251L13.75 3.45001C14.525 3.01251 15.475 3.01251 16.25 3.45001L24.4125 8.16251C24.775 8.37876 25.0763 8.68501 25.2875 9.05001Z" fill="#588FE1"/>
<path opacity="0.5" d="M15 15V26.875C14.6059 26.8744 14.217 26.7847 13.8625 26.6125L5.625 21.85C5.24558 21.6305 4.93044 21.3152 4.71108 20.9357C4.49172 20.5563 4.37583 20.1258 4.375 19.6875V10.3125C4.37706 9.86963 4.49331 9.4348 4.7125 9.04999L15 15Z" fill="#588FE1"/>
<path d="M25.625 10.3125V19.6875C25.6242 20.1258 25.5083 20.5563 25.2889 20.9357C25.0696 21.3152 24.7544 21.6305 24.375 21.85L16.1 26.625C15.7563 26.7875 15.38 26.8725 15 26.875V15L25.2875 9.04999C25.5062 9.43499 25.6225 9.86999 25.625 10.3125Z" fill="#588FE1"/>
</svg>
