<svg width="452" height="452" viewBox="0 0 452 452" fill="none" xmlns="http://www.w3.org/2000/svg">
<path d="M37.4437 269.139L44.5039 265.062C44.5039 265.062 48.7075 247.588 47.0351 231.876C44.6757 209.773 30.1303 201.456 24.5978 203.364C19.0653 205.271 17.4653 211.699 26.6228 224.861C32.0197 232.626 38.655 248.799 37.4437 269.139Z" fill="#588FE1"/>
<g opacity="0.65">
<path d="M37.4437 269.139L44.5039 265.062C44.5039 265.062 48.7075 247.588 47.0351 231.876C44.6757 209.773 30.1303 201.456 24.5978 203.364C19.0653 205.271 17.4653 211.699 26.6228 224.861C32.0197 232.626 38.655 248.799 37.4437 269.139Z" fill="white"/>
</g>
<path d="M40.3726 260.56H40.3003C40.1733 260.536 40.0611 260.462 39.9882 260.356C39.9153 260.249 39.8878 260.117 39.9116 259.99C43.7807 239.56 36.6662 216.689 27.8432 207.161C27.7557 207.065 27.7098 206.938 27.7158 206.808C27.7217 206.679 27.7789 206.557 27.8748 206.469C27.9707 206.382 28.0975 206.336 28.2272 206.342C28.3569 206.348 28.4789 206.405 28.5664 206.501C37.5431 216.201 44.8384 239.479 40.8698 260.162C40.8483 260.277 40.7862 260.38 40.695 260.453C40.6038 260.526 40.4894 260.564 40.3726 260.56Z" fill="white"/>
<path d="M19.662 279.399C18.6133 279.942 15.8019 277.537 15.0245 276.959C13.6856 275.94 12.6304 274.596 11.9599 273.053C11.204 271.305 11.0144 269.364 11.4175 267.503C11.6331 266.52 11.9171 265.553 12.2673 264.61C12.5837 263.706 12.9001 262.748 13.2255 261.807C13.6028 260.906 13.7935 259.937 13.786 258.96C13.6323 257.007 11.978 255.561 10.4683 254.304C8.79591 252.912 7.07831 251.113 7.20487 248.772C7.42429 246.96 8.23815 245.272 9.51911 243.972C10.7033 242.616 12.0955 241.422 13.1893 239.985C14.0428 238.971 14.5216 237.694 14.5453 236.369C14.4785 235.56 14.2478 234.772 13.8673 234.055C12.9895 232.557 12.2337 230.991 11.6073 229.372C11.1282 227.709 11.309 225.675 12.6469 224.563C13.2409 224.169 13.9067 223.896 14.6063 223.759C15.3059 223.623 16.0255 223.625 16.724 223.767C18.045 223.999 19.3001 224.514 20.4033 225.277C24.0193 227.528 25.9177 232.039 29.7777 233.829C31.3173 234.392 32.8903 234.86 34.4876 235.23C35.2878 235.422 36.0392 235.778 36.6944 236.276C37.3496 236.774 37.8941 237.403 38.2934 238.123C39.5952 241.088 36.7295 244.523 37.5883 247.642C38.3567 250.354 40.9421 251.574 42.2981 254.096C42.8527 255.215 43.0334 256.483 42.8134 257.712C42.5797 259.783 41.9668 261.794 41.0054 263.643C39.9263 265.542 38.7339 267.374 37.4346 269.13C37.4346 269.13 19.8247 279.336 19.662 279.399Z" fill="#588FE1"/>
<g opacity="0.3">
<path d="M19.662 279.399C18.6133 279.942 15.8019 277.537 15.0245 276.959C13.6856 275.94 12.6304 274.596 11.9599 273.053C11.204 271.305 11.0144 269.364 11.4175 267.503C11.6331 266.52 11.9171 265.553 12.2673 264.61C12.5837 263.706 12.9001 262.748 13.2255 261.807C13.6028 260.906 13.7935 259.937 13.786 258.96C13.6323 257.007 11.978 255.561 10.4683 254.304C8.79591 252.912 7.07831 251.113 7.20487 248.772C7.42429 246.96 8.23815 245.272 9.51911 243.972C10.7033 242.616 12.0955 241.422 13.1893 239.985C14.0428 238.971 14.5216 237.694 14.5453 236.369C14.4785 235.56 14.2478 234.772 13.8673 234.055C12.9895 232.557 12.2337 230.991 11.6073 229.372C11.1282 227.709 11.309 225.675 12.6469 224.563C13.2409 224.169 13.9067 223.896 14.6063 223.759C15.3059 223.623 16.0255 223.625 16.724 223.767C18.045 223.999 19.3001 224.514 20.4033 225.277C24.0193 227.528 25.9177 232.039 29.7777 233.829C31.3173 234.392 32.8903 234.86 34.4876 235.23C35.2878 235.422 36.0392 235.778 36.6944 236.276C37.3496 236.774 37.8941 237.403 38.2934 238.123C39.5952 241.088 36.7295 244.523 37.5883 247.642C38.3567 250.354 40.9421 251.574 42.2981 254.096C42.8527 255.215 43.0334 256.483 42.8134 257.712C42.5797 259.783 41.9668 261.794 41.0054 263.643C39.9263 265.542 38.7339 267.374 37.4346 269.13C37.4346 269.13 19.8247 279.336 19.662 279.399Z" fill="white"/>
</g>
<path d="M29.8862 274.075C29.763 274.063 29.6493 274.004 29.5698 273.909C29.4903 273.814 29.4513 273.692 29.4613 273.568C31.1518 255.235 23.5221 234.516 17.5195 228.305C17.4344 228.217 17.388 228.098 17.3905 227.975C17.3931 227.852 17.4444 227.735 17.5331 227.65C17.6218 227.565 17.7407 227.518 17.8636 227.521C17.9865 227.523 18.1033 227.575 18.1885 227.663C24.3085 233.991 32.101 255.064 30.3834 273.65C30.3789 273.71 30.3623 273.77 30.3348 273.824C30.3074 273.878 30.2694 273.926 30.2232 273.966C30.177 274.005 30.1234 274.035 30.0656 274.054C30.0078 274.073 29.9468 274.08 29.8862 274.075Z" fill="white"/>
<path d="M28.0692 251.475H27.9336C23.6413 250.044 19.2071 249.08 14.7081 248.6C14.6478 248.595 14.5891 248.579 14.5353 248.551C14.4815 248.524 14.4339 248.486 14.3951 248.439C14.3563 248.393 14.3273 248.339 14.3096 248.281C14.2919 248.224 14.286 248.163 14.2922 248.103C14.2941 248.04 14.3092 247.979 14.3364 247.923C14.3636 247.867 14.4024 247.817 14.4502 247.777C14.498 247.737 14.5537 247.707 14.6137 247.69C14.6738 247.673 14.7367 247.669 14.7985 247.678C19.373 248.147 23.8831 249.111 28.25 250.553C28.3503 250.594 28.433 250.67 28.4841 250.766C28.5352 250.862 28.5514 250.972 28.5301 251.079C28.5088 251.185 28.4512 251.281 28.3672 251.35C28.2832 251.419 28.1778 251.457 28.0692 251.457V251.475Z" fill="white"/>
<path d="M414.556 269.139L407.496 265.062C407.496 265.062 403.292 247.588 404.965 231.876C407.324 209.773 421.87 201.456 427.402 203.364C432.935 205.271 434.535 211.699 425.377 224.861C419.98 232.626 413.345 248.799 414.556 269.139Z" fill="#588FE1"/>
<g opacity="0.65">
<path d="M414.556 269.139L407.496 265.062C407.496 265.062 403.292 247.588 404.965 231.876C407.324 209.773 421.87 201.456 427.402 203.364C432.935 205.271 434.535 211.699 425.377 224.861C419.98 232.626 413.345 248.799 414.556 269.139Z" fill="white"/>
</g>
<path d="M411.627 260.56H411.7C411.827 260.536 411.939 260.462 412.012 260.356C412.085 260.249 412.112 260.117 412.088 259.99C408.219 239.605 415.334 216.698 424.157 207.17C424.244 207.074 424.29 206.947 424.284 206.817C424.278 206.688 424.221 206.566 424.125 206.478C424.029 206.391 423.903 206.345 423.773 206.351C423.643 206.357 423.521 206.414 423.434 206.51C414.457 216.21 407.162 239.488 411.13 260.171C411.154 260.284 411.216 260.386 411.308 260.457C411.399 260.528 411.512 260.564 411.627 260.56Z" fill="white"/>
<path d="M432.338 279.399C433.387 279.942 436.198 277.537 436.976 276.959C438.314 275.94 439.37 274.596 440.04 273.053C440.796 271.305 440.986 269.364 440.582 267.503C440.367 266.52 440.083 265.553 439.733 264.61C439.416 263.706 439.1 262.748 438.774 261.807C438.397 260.906 438.206 259.937 438.214 258.96C438.368 257.007 440.022 255.561 441.532 254.304C443.204 252.912 444.922 251.113 444.795 248.772C444.576 246.96 443.762 245.272 442.481 243.972C441.297 242.616 439.904 241.422 438.811 239.985C437.957 238.971 437.478 237.694 437.455 236.369C437.522 235.56 437.752 234.772 438.133 234.055C439.011 232.557 439.766 230.991 440.393 229.372C440.872 227.709 440.691 225.675 439.353 224.563C438.759 224.169 438.093 223.896 437.394 223.759C436.694 223.623 435.975 223.625 435.276 223.767C433.955 223.999 432.7 224.514 431.597 225.277C427.981 227.528 426.082 232.039 422.222 233.829C420.683 234.392 419.11 234.86 417.512 235.23C416.712 235.422 415.961 235.778 415.306 236.276C414.65 236.774 414.106 237.403 413.707 238.123C412.405 241.088 415.27 244.523 414.412 247.642C413.643 250.354 411.058 251.574 409.702 254.096C409.147 255.215 408.967 256.483 409.187 257.712C409.42 259.783 410.033 261.794 410.995 263.643C412.074 265.542 413.266 267.374 414.565 269.13C414.565 269.13 432.175 279.336 432.338 279.399Z" fill="#588FE1"/>
<g opacity="0.3">
<path d="M432.338 279.399C433.387 279.942 436.198 277.537 436.976 276.959C438.314 275.94 439.37 274.596 440.04 273.053C440.796 271.305 440.986 269.364 440.582 267.503C440.367 266.52 440.083 265.553 439.733 264.61C439.416 263.706 439.1 262.748 438.774 261.807C438.397 260.906 438.206 259.937 438.214 258.96C438.368 257.007 440.022 255.561 441.532 254.304C443.204 252.912 444.922 251.113 444.795 248.772C444.576 246.96 443.762 245.272 442.481 243.972C441.297 242.616 439.904 241.422 438.811 239.985C437.957 238.971 437.478 237.694 437.455 236.369C437.522 235.56 437.752 234.772 438.133 234.055C439.011 232.557 439.766 230.991 440.393 229.372C440.872 227.709 440.691 225.675 439.353 224.563C438.759 224.169 438.093 223.896 437.394 223.759C436.694 223.623 435.975 223.625 435.276 223.767C433.955 223.999 432.7 224.514 431.597 225.277C427.981 227.528 426.082 232.039 422.222 233.829C420.683 234.392 419.11 234.86 417.512 235.23C416.712 235.422 415.961 235.778 415.306 236.276C414.65 236.774 414.106 237.403 413.707 238.123C412.405 241.088 415.27 244.523 414.412 247.642C413.643 250.354 411.058 251.574 409.702 254.096C409.147 255.215 408.967 256.483 409.187 257.712C409.42 259.783 410.033 261.794 410.995 263.643C412.074 265.542 413.266 267.374 414.565 269.13C414.565 269.13 432.175 279.336 432.338 279.399Z" fill="white"/>
</g>
<path d="M422.114 274.075C422.237 274.063 422.351 274.004 422.43 273.909C422.51 273.814 422.549 273.692 422.539 273.568C420.848 255.235 428.478 234.516 434.48 228.305C434.566 228.217 434.612 228.098 434.609 227.975C434.607 227.852 434.556 227.735 434.467 227.65C434.378 227.565 434.259 227.518 434.136 227.521C434.013 227.523 433.897 227.575 433.811 227.663C427.691 233.991 419.899 255.064 421.617 273.65C421.621 273.71 421.638 273.77 421.665 273.824C421.693 273.878 421.731 273.926 421.777 273.966C421.823 274.005 421.877 274.035 421.934 274.054C421.992 274.073 422.053 274.08 422.114 274.075Z" fill="white"/>
<path d="M423.976 251.475H424.112C428.389 250.047 432.808 249.083 437.292 248.6C437.352 248.595 437.411 248.579 437.465 248.551C437.518 248.524 437.566 248.486 437.605 248.439C437.644 248.393 437.673 248.339 437.69 248.281C437.708 248.224 437.714 248.163 437.708 248.103C437.706 248.04 437.691 247.979 437.664 247.923C437.636 247.867 437.598 247.817 437.55 247.777C437.502 247.737 437.446 247.707 437.386 247.69C437.326 247.673 437.263 247.669 437.202 247.678C432.627 248.147 428.117 249.111 423.75 250.553C423.65 250.594 423.567 250.67 423.516 250.766C423.465 250.862 423.449 250.972 423.47 251.079C423.491 251.185 423.549 251.281 423.633 251.35C423.717 251.419 423.822 251.457 423.931 251.457L423.976 251.475Z" fill="white"/>
<path d="M226 446.079C347.002 446.079 445.093 389.444 445.093 319.582C445.093 249.72 347.002 193.085 226 193.085C104.998 193.085 6.90656 249.72 6.90656 319.582C6.90656 389.444 104.998 446.079 226 446.079Z" fill="#F5F5F5"/>
<path d="M175.557 341.486L238.05 305.407L160.849 260.84L98.3552 296.919L175.557 341.486Z" fill="#E0E0E0"/>
<path d="M265.107 420.107L323.261 386.532L265.107 352.958L206.962 386.532L265.107 420.107Z" fill="#E0E0E0"/>
<path d="M353.835 371.571C381.853 371.571 404.567 358.458 404.567 342.282C404.567 326.105 381.853 312.992 353.835 312.992C325.816 312.992 303.102 326.105 303.102 342.282C303.102 358.458 325.816 371.571 353.835 371.571Z" fill="#E0E0E0"/>
<path d="M89.9842 376.769C125.312 376.769 153.951 360.236 153.951 339.841C153.951 319.446 125.312 302.912 89.9842 302.912C54.6561 302.912 26.0171 319.446 26.0171 339.841C26.0171 360.236 54.6561 376.769 89.9842 376.769Z" fill="#E0E0E0"/>
<path d="M18.749 84.307C18.6411 84.3077 18.535 84.2797 18.4416 84.2256C18.345 84.172 18.2646 84.0933 18.2089 83.9979C18.1532 83.9024 18.1243 83.7938 18.1252 83.6832V63.0269C18.1243 62.9164 18.1532 62.8077 18.2089 62.7122C18.2646 62.6168 18.345 62.5381 18.4416 62.4845L36.2142 52.2241C36.3081 52.1665 36.416 52.136 36.5261 52.136C36.6362 52.136 36.7442 52.1665 36.838 52.2241C36.9323 52.2796 37.0104 52.3589 37.0643 52.4541C37.1183 52.5493 37.1462 52.657 37.1454 52.7665V73.4319C37.1456 73.5411 37.1163 73.6482 37.0606 73.7421C37.0049 73.836 36.9249 73.9131 36.829 73.9653L19.0654 84.2256C18.9684 84.2789 18.8596 84.3068 18.749 84.307ZM19.3727 63.3794V82.6075L35.8978 73.0703V53.8422L19.3727 63.3794Z" fill="#E0E0E0"/>
<path d="M18.749 119.427C18.6397 119.43 18.5324 119.398 18.4416 119.337C18.3457 119.285 18.2657 119.208 18.21 119.114C18.1543 119.02 18.125 118.913 18.1252 118.804V98.1382C18.1243 98.0277 18.1532 97.919 18.2089 97.8236C18.2646 97.7281 18.345 97.6495 18.4416 97.5958L36.2142 87.3354C36.3096 87.2824 36.417 87.2546 36.5261 87.2546C36.6353 87.2546 36.7426 87.2824 36.838 87.3354C36.9323 87.3909 37.0104 87.4703 37.0643 87.5655C37.1183 87.6607 37.1462 87.7684 37.1454 87.8778V108.543C37.1453 108.654 37.116 108.762 37.0604 108.857C37.0048 108.952 36.925 109.031 36.829 109.086L19.0654 119.328C18.9719 119.391 18.8619 119.426 18.749 119.427ZM19.3727 98.536V117.755L35.8978 108.218V88.9536L19.3727 98.536Z" fill="#E0E0E0"/>
<path d="M27.4183 109.764L23.287 105.786L24.6611 102.857L27.0206 105.117L37.2086 83.5657L38.9895 85.2743L27.4183 109.764Z" fill="#588FE1"/>
<path d="M18.749 154.584C18.6411 154.585 18.535 154.557 18.4416 154.503C18.3462 154.448 18.2669 154.369 18.2114 154.273C18.1559 154.178 18.1262 154.07 18.1252 153.96V133.25C18.1253 133.139 18.1546 133.031 18.2102 132.936C18.2658 132.84 18.3456 132.762 18.4416 132.707L36.2143 122.447C36.3082 122.399 36.4127 122.377 36.5178 122.381C36.6229 122.385 36.7254 122.415 36.8156 122.469C36.9058 122.523 36.9809 122.599 37.0338 122.69C37.0867 122.781 37.1158 122.884 37.1183 122.989V143.655C37.1191 143.765 37.0902 143.874 37.0345 143.969C36.9789 144.065 36.8985 144.143 36.8019 144.197L19.0654 154.457C18.9728 154.527 18.8637 154.57 18.749 154.584ZM19.3727 133.656V152.875L35.8979 143.338V124.074L19.3727 133.656Z" fill="#E0E0E0"/>
<path d="M432.935 84.2256L415.171 73.9653C415.075 73.9131 414.995 73.836 414.939 73.7421C414.884 73.6482 414.854 73.5411 414.855 73.4319V52.7665C414.854 52.657 414.882 52.5493 414.936 52.4541C414.99 52.3589 415.068 52.2796 415.162 52.2241C415.256 52.1665 415.364 52.136 415.474 52.136C415.584 52.136 415.692 52.1665 415.786 52.2241L433.558 62.4845C433.655 62.5381 433.735 62.6168 433.791 62.7122C433.847 62.8077 433.876 62.9164 433.875 63.0269V83.6832C433.876 83.7938 433.847 83.9024 433.791 83.9979C433.735 84.0933 433.655 84.172 433.558 84.2256C433.465 84.2797 433.359 84.3077 433.251 84.307C433.14 84.3068 433.032 84.2789 432.935 84.2256ZM416.102 53.8422V73.0703L432.627 82.6075V63.3794L416.102 53.8422Z" fill="#E0E0E0"/>
<path d="M432.935 119.328L415.171 109.077C415.075 109.022 414.995 108.943 414.94 108.848C414.884 108.753 414.855 108.645 414.855 108.534V87.8778C414.854 87.7684 414.882 87.6607 414.936 87.5655C414.99 87.4703 415.068 87.3909 415.162 87.3354C415.257 87.2824 415.365 87.2546 415.474 87.2546C415.583 87.2546 415.69 87.2824 415.786 87.3354L433.558 97.632C433.655 97.6856 433.735 97.7643 433.791 97.8598C433.847 97.9552 433.876 98.0639 433.875 98.1744V118.84C433.875 118.949 433.846 119.056 433.79 119.15C433.734 119.244 433.654 119.321 433.558 119.373C433.468 119.434 433.36 119.466 433.251 119.464C433.134 119.452 433.024 119.404 432.935 119.328ZM416.102 88.9536V108.182L432.627 117.719V98.536L416.102 88.9536Z" fill="#E0E0E0"/>
<path d="M432.935 154.457L415.171 144.197C415.074 144.143 414.994 144.065 414.938 143.969C414.883 143.874 414.854 143.765 414.855 143.655V122.989C414.857 122.884 414.886 122.781 414.939 122.69C414.992 122.599 415.067 122.523 415.157 122.469C415.248 122.415 415.35 122.385 415.455 122.381C415.56 122.377 415.665 122.399 415.759 122.447L433.558 132.707C433.654 132.762 433.734 132.84 433.79 132.936C433.845 133.031 433.875 133.139 433.875 133.25V153.915C433.874 154.025 433.844 154.133 433.789 154.228C433.733 154.323 433.654 154.402 433.558 154.457C433.465 154.511 433.359 154.54 433.251 154.539C433.14 154.539 433.032 154.511 432.935 154.457ZM416.102 124.074V143.293L432.627 152.83V133.611L416.102 124.074Z" fill="#E0E0E0"/>
<path d="M423.524 143.618L419.393 134.868L421.3 133.042L424.057 138.918L433.712 129.606L435.095 132.49L423.524 143.618Z" fill="#588FE1"/>
<path d="M179.128 61.472L161.355 51.2297C161.261 51.1756 161.184 51.0979 161.13 51.0042C161.076 50.9106 161.047 50.8044 161.048 50.6963V30.0309C161.049 29.9207 161.078 29.8128 161.134 29.7176C161.189 29.6225 161.269 29.5435 161.364 29.4885C161.459 29.4354 161.567 29.4076 161.676 29.4076C161.785 29.4076 161.892 29.4354 161.988 29.4885L179.751 39.776C179.846 39.8315 179.924 39.9108 179.978 40.006C180.032 40.1012 180.06 40.209 180.059 40.3184V60.9477C180.06 61.0571 180.032 61.1648 179.978 61.26C179.924 61.3552 179.846 61.4346 179.751 61.4901C179.655 61.5461 179.546 61.5771 179.435 61.5805C179.325 61.5718 179.219 61.5344 179.128 61.472ZM162.295 31.1066V50.3347L178.811 59.8719V40.68L162.295 31.1066Z" fill="#E0E0E0"/>
<path d="M170.268 51.8263L166.137 43.0756L168.045 41.2495L170.802 47.1255L180.456 37.8143L181.84 40.6981L170.268 51.8263Z" fill="#588FE1"/>
<path d="M206.682 77.3914L188.936 67.131C188.84 67.0789 188.76 67.0018 188.704 66.9079C188.649 66.814 188.619 66.7068 188.62 66.5977V45.9322C188.619 45.8228 188.647 45.7151 188.701 45.6199C188.755 45.5247 188.833 45.4453 188.927 45.3898C189.022 45.3368 189.13 45.309 189.239 45.309C189.348 45.309 189.455 45.3368 189.551 45.3898L207.323 55.6502C207.42 55.7039 207.5 55.7825 207.556 55.878C207.612 55.9734 207.641 56.0821 207.64 56.1926V76.84C207.635 77.0049 207.568 77.1619 207.453 77.2794C207.337 77.3968 207.181 77.466 207.016 77.4728C206.899 77.4753 206.784 77.4473 206.682 77.3914ZM189.84 47.008V66.2361L206.365 75.7733V56.5452L189.84 47.008Z" fill="#E0E0E0"/>
<path d="M234.208 93.2928L216.445 83.0414C216.349 82.9871 216.269 82.9082 216.213 82.813C216.158 82.7177 216.128 82.6094 216.128 82.499V61.8336C216.127 61.7242 216.155 61.6164 216.209 61.5212C216.263 61.426 216.341 61.3467 216.436 61.2912C216.531 61.2382 216.638 61.2103 216.748 61.2103C216.857 61.2103 216.964 61.2382 217.059 61.2912L234.832 71.5516C234.929 71.6052 235.009 71.6839 235.065 71.7794C235.12 71.8748 235.149 71.9835 235.148 72.094V92.7594C235.149 92.8686 235.119 92.9758 235.064 93.0697C235.008 93.1636 234.928 93.2407 234.832 93.2928C234.741 93.3527 234.634 93.3841 234.525 93.3832C234.413 93.3843 234.303 93.3529 234.208 93.2928ZM217.376 62.9094V82.1374L233.901 91.6746V72.4556L217.376 62.9094Z" fill="#E0E0E0"/>
<path d="M163.832 145.897L113.904 293.755L110.333 295.816L160.27 147.958L163.832 145.897Z" fill="#455A64"/>
<path d="M110.333 295.816L108.57 294.803L158.498 146.936L160.27 147.958L110.333 295.816Z" fill="#263238"/>
<path d="M160.27 266.987L158.498 265.975L108.57 175.774L110.333 176.786L160.27 266.987Z" fill="#263238"/>
<path d="M113.904 174.725L163.832 264.926L160.27 266.987L110.333 176.786L113.904 174.725Z" fill="#455A64"/>
<path d="M176.334 210.777V214.899L229.833 184.009V179.896L176.334 210.777Z" fill="#455A64"/>
<path d="M176.334 210.777V214.899L108.57 175.774V171.652L176.334 210.777Z" fill="#37474F"/>
<path d="M229.833 184.009L179.905 331.877L176.334 333.929L226.271 186.07L229.833 184.009Z" fill="#455A64"/>
<path d="M176.334 333.929L174.571 332.916L224.499 185.049L226.271 186.07L176.334 333.929Z" fill="#263238"/>
<path d="M226.271 305.1L224.499 304.088L174.571 213.886L176.334 214.899L226.271 305.1Z" fill="#263238"/>
<path d="M179.905 212.838L229.833 303.039L226.271 305.1L176.334 214.899L179.905 212.838Z" fill="#455A64"/>
<path d="M162.069 66.6339L147.786 74.8783C135.859 81.7654 125.956 91.6713 119.072 103.6C112.188 115.529 108.566 129.06 108.57 142.832V171.679L112.132 173.74L165.631 142.832V68.704L162.069 66.6339Z" fill="#588FE1"/>
<path opacity="0.6" d="M162.069 66.6339L147.786 74.8783C135.859 81.7654 125.956 91.6713 119.072 103.6C112.188 115.529 108.566 129.06 108.57 142.832V171.679L112.132 173.74L165.631 142.832V68.704L162.069 66.6339Z" fill="white"/>
<path opacity="0.6" d="M114.365 113.226L165.631 142.832V68.704L162.069 66.6429L147.786 74.8874C132.695 83.5981 120.936 97.0878 114.365 113.226Z" fill="white"/>
<path d="M112.096 173.713V144.866C112.096 131.097 115.721 117.571 122.607 105.647C129.492 93.7234 139.395 83.8224 151.321 76.9395L165.631 68.704V142.832L112.096 173.713Z" fill="#588FE1"/>
<path opacity="0.7" d="M112.096 173.713V144.866C112.096 131.097 115.721 117.571 122.607 105.647C129.492 93.7234 139.395 83.8224 151.321 76.9395L165.631 68.704V142.832L112.096 173.713Z" fill="white"/>
<path d="M172.772 204.602L112.132 169.59L165.631 138.71L226.271 173.713L172.772 204.602Z" fill="#588FE1"/>
<path opacity="0.8" d="M172.772 204.602L112.132 169.59L165.631 138.71L226.271 173.713L172.772 204.602Z" fill="white"/>
<path d="M172.772 208.725V204.602L112.132 169.59V173.713L172.772 208.725Z" fill="#588FE1"/>
<path opacity="0.6" d="M172.772 208.725V204.602L112.132 169.59V173.713L172.772 208.725Z" fill="white"/>
<path opacity="0.3" d="M132.255 171.281L157.224 185.7L189.325 167.168L164.356 152.749L132.255 171.281Z" fill="#588FE1"/>
<path d="M132.255 169.816L157.224 184.226L189.325 165.694L164.356 151.284L132.255 169.816Z" fill="#FAFAFA"/>
<path d="M175.051 170.033C175.015 170.042 174.978 170.042 174.942 170.033L171.38 167.972C171.346 167.953 171.318 167.926 171.298 167.893C171.279 167.859 171.268 167.821 171.268 167.782C171.268 167.744 171.279 167.706 171.298 167.672C171.318 167.639 171.346 167.611 171.38 167.593L174.942 165.531C174.975 165.513 175.013 165.504 175.051 165.504C175.088 165.504 175.126 165.513 175.159 165.531L178.775 167.593C178.809 167.611 178.837 167.639 178.857 167.672C178.877 167.706 178.887 167.744 178.887 167.782C178.887 167.821 178.877 167.859 178.857 167.893C178.837 167.926 178.809 167.953 178.775 167.972L175.159 170.033C175.123 170.043 175.086 170.043 175.051 170.033ZM171.923 167.755L175.051 169.563L178.178 167.755L175.051 165.947L171.923 167.755Z" fill="#588FE1"/>
<path d="M167.918 174.156H167.81L164.248 172.094C164.214 172.075 164.186 172.048 164.165 172.014C164.145 171.981 164.133 171.944 164.13 171.905C164.13 171.865 164.141 171.826 164.161 171.793C164.182 171.759 164.212 171.732 164.248 171.715L167.81 169.654C167.841 169.632 167.879 169.62 167.918 169.62C167.957 169.62 167.995 169.632 168.026 169.654L171.597 171.715C171.631 171.734 171.658 171.762 171.677 171.795C171.696 171.828 171.706 171.866 171.706 171.905C171.704 171.943 171.693 171.979 171.674 172.012C171.655 172.045 171.629 172.073 171.597 172.094L168.026 174.156C167.991 174.165 167.954 174.165 167.918 174.156ZM164.79 171.878L167.918 173.686L171.046 171.878L167.918 170.07L164.79 171.878Z" fill="#588FE1"/>
<path d="M160.785 178.269C160.75 178.277 160.713 178.277 160.677 178.269L157.061 176.208C157.028 176.188 157 176.161 156.981 176.127C156.962 176.094 156.952 176.056 156.952 176.018C156.955 175.98 156.965 175.943 156.984 175.91C157.003 175.877 157.029 175.849 157.061 175.828L160.677 173.767C160.71 173.749 160.748 173.739 160.785 173.739C160.823 173.739 160.861 173.749 160.894 173.767L164.51 175.828C164.542 175.849 164.568 175.877 164.587 175.91C164.605 175.943 164.616 175.98 164.618 176.018C164.619 176.056 164.609 176.094 164.59 176.127C164.571 176.161 164.543 176.188 164.51 176.208L160.894 178.269C160.858 178.278 160.821 178.278 160.785 178.269ZM157.658 175.991L160.785 177.799L163.913 175.991L160.785 174.183L157.658 175.991Z" fill="#588FE1"/>
<path d="M169.672 165.143C169.596 165.142 169.522 165.123 169.455 165.089L158.751 158.914C158.651 158.854 158.578 158.757 158.548 158.644C158.518 158.531 158.532 158.411 158.589 158.309C158.649 158.208 158.746 158.135 158.86 158.107C158.973 158.078 159.094 158.095 159.194 158.155L169.889 164.329C169.973 164.376 170.04 164.45 170.078 164.539C170.116 164.628 170.123 164.727 170.098 164.821C170.073 164.914 170.018 164.997 169.94 165.055C169.863 165.113 169.769 165.144 169.672 165.143Z" fill="#E0E0E0"/>
<path d="M162.566 169.229C162.49 169.225 162.416 169.203 162.349 169.166L151.655 162.991C151.564 162.928 151.499 162.834 151.475 162.726C151.45 162.618 151.466 162.505 151.52 162.408C151.575 162.312 151.663 162.24 151.769 162.205C151.874 162.171 151.988 162.177 152.089 162.223L162.792 168.406C162.842 168.435 162.885 168.473 162.92 168.519C162.954 168.565 162.979 168.617 162.993 168.672C163.008 168.728 163.011 168.786 163.003 168.842C162.995 168.899 162.975 168.954 162.946 169.003C162.91 169.072 162.855 169.129 162.788 169.169C162.721 169.209 162.644 169.23 162.566 169.229Z" fill="#E0E0E0"/>
<path d="M155.488 173.297C155.409 173.297 155.332 173.279 155.262 173.243L144.568 167.068C144.467 167.008 144.395 166.911 144.364 166.798C144.334 166.685 144.348 166.565 144.405 166.463C144.434 166.413 144.472 166.37 144.518 166.335C144.564 166.301 144.616 166.276 144.671 166.261C144.727 166.247 144.784 166.244 144.841 166.252C144.898 166.26 144.952 166.28 145.002 166.309L155.705 172.483C155.805 172.542 155.877 172.637 155.908 172.748C155.938 172.86 155.924 172.979 155.868 173.08C155.829 173.146 155.774 173.202 155.707 173.24C155.64 173.278 155.565 173.297 155.488 173.297Z" fill="#E0E0E0"/>
<path d="M165.631 68.6949L226.271 103.698L222.7 105.759L162.069 70.747L165.631 68.6949Z" fill="#588FE1"/>
<path opacity="0.8" d="M165.631 68.6949L226.271 103.698L222.7 105.759L162.069 70.747L165.631 68.6949Z" fill="white"/>
<path d="M162.069 70.7471V140.771L222.7 175.774V105.759L162.069 70.7471Z" fill="#588FE1"/>
<path opacity="0.6" d="M162.069 70.7471V140.771L222.7 175.774V105.759L162.069 70.7471Z" fill="white"/>
<path d="M226.271 103.698L211.988 111.942C200.062 118.831 190.16 128.737 183.276 140.665C176.393 152.594 172.77 166.124 172.772 179.896V208.743L176.334 210.795L229.833 179.896V105.768L226.271 103.698Z" fill="#588FE1"/>
<path opacity="0.6" d="M226.271 103.698L211.988 111.942C200.062 118.831 190.16 128.737 183.276 140.665C176.393 152.594 172.77 166.124 172.772 179.896V208.743L176.334 210.795L229.833 179.896V105.768L226.271 103.698Z" fill="white"/>
<path opacity="0.6" d="M178.567 150.29L229.833 179.896V105.768L226.271 103.707L211.988 111.951C196.899 120.664 185.14 134.153 178.567 150.29Z" fill="white"/>
<path d="M176.334 210.777V181.93C176.335 168.161 179.96 154.635 186.845 142.711C193.731 130.787 203.634 120.886 215.559 114.003L229.833 105.768V179.896L176.334 210.777Z" fill="#588FE1"/>
<path opacity="0.8" d="M176.334 210.777V181.93C176.335 168.161 179.96 154.635 186.845 142.711C193.731 130.787 203.634 120.886 215.559 114.003L229.833 105.768V179.896L176.334 210.777Z" fill="white"/>
<path d="M199.712 150.787L198.094 154.946V157.296L197.849 157.441V155.063L196.222 152.785L196.53 152.613L197.705 154.304L197.976 154.729L198.229 154.005L199.413 150.95L199.712 150.787Z" fill="#455A64"/>
<path d="M201.809 155.244C200.607 155.931 200.001 155.244 200.001 153.436C199.936 152.676 200.068 151.912 200.385 151.219C200.702 150.525 201.192 149.925 201.809 149.476C203.011 148.789 203.617 149.576 203.617 151.284C203.691 152.045 203.563 152.812 203.245 153.507C202.928 154.203 202.432 154.802 201.809 155.244ZM201.809 149.82C201.265 150.221 200.833 150.755 200.555 151.371C200.276 151.986 200.16 152.663 200.218 153.336C200.218 154.711 200.67 155.615 201.809 154.946C202.35 154.558 202.78 154.037 203.059 153.434C203.338 152.83 203.456 152.164 203.4 151.501C203.4 150.136 202.966 149.16 201.809 149.811V149.82Z" fill="#455A64"/>
<path d="M207.667 146.204V149.241C207.667 150.977 207.143 152.161 206.022 152.812C204.901 153.463 204.367 152.884 204.367 151.149V148.102L204.602 147.967V151.04C204.602 152.423 205 153.101 206.022 152.514C206.518 152.173 206.912 151.704 207.16 151.156C207.409 150.607 207.503 150.002 207.432 149.404V146.34L207.667 146.204Z" fill="#455A64"/>
<path d="M211.843 149.377L211.572 149.54L211.066 148.365C210.84 147.822 210.496 147.705 209.9 148.048L208.788 148.69V151.104L208.553 151.239V145.653L210.261 144.667C210.985 144.251 211.536 144.432 211.536 145.499C211.538 145.883 211.458 146.262 211.302 146.613C211.146 146.963 210.918 147.277 210.632 147.533C210.957 147.533 211.165 147.759 211.301 148.066L211.843 149.377ZM210.279 144.984L208.779 145.888V148.355V148.41L210.225 147.578C210.554 147.382 210.827 147.104 211.017 146.771C211.207 146.439 211.308 146.063 211.31 145.68C211.31 144.758 210.858 144.64 210.279 144.984Z" fill="#455A64"/>
<path d="M189.017 178.576L185.645 167.945L188.222 166.463L189.677 171.588C190.256 173.604 190.491 174.445 190.5 174.49H190.545C190.545 174.427 190.78 173.324 191.35 170.702L192.823 163.832L195.273 162.413L191.901 176.94L189.017 178.576Z" fill="#588FE1"/>
<path d="M200.363 159.194C203.255 157.531 205.344 159.023 205.344 162.865C205.344 166.707 203.255 170.612 200.363 172.275C197.47 173.939 195.391 172.456 195.391 168.659C195.391 164.863 197.479 160.912 200.363 159.194ZM200.363 169.419C201.218 168.845 201.915 168.064 202.389 167.149C202.863 166.234 203.099 165.215 203.075 164.185C203.075 161.915 201.936 161.138 200.363 162.033C199.504 162.611 198.806 163.396 198.332 164.316C197.858 165.235 197.623 166.26 197.651 167.294C197.669 169.536 198.799 170.323 200.363 169.419Z" fill="#588FE1"/>
<path d="M210.957 156.139V165.911L208.697 167.222V157.441L205.805 159.113V156.311L213.841 151.664V154.476L210.957 156.139Z" fill="#588FE1"/>
<path d="M215.016 150.968L221.887 146.999V149.802L217.276 152.46V154.62L220.675 152.658V155.172L217.276 157.133V159.429L221.959 156.717V159.529L215.016 163.534V150.968Z" fill="#588FE1"/>
<path d="M195.201 184.552L194.975 184.678V179.797L194.685 180.918L193.302 185.718L191.91 182.5L191.621 181.731V186.631L191.386 186.757V181.171L191.603 181.053L193.094 184.497L193.311 185.049L193.519 184.253L195.02 179.082L195.228 178.956L195.201 184.552Z" fill="#455A64"/>
<path d="M199.549 182.038L199.287 182.192L198.808 180.99L196.457 182.346L195.987 184.091L195.725 184.244L197.533 177.618L197.741 177.491L199.549 182.038ZM198.726 180.719L197.822 178.359L197.714 177.934L197.587 178.486L196.683 181.921V181.975L198.726 180.719Z" fill="#455A64"/>
<path d="M202.496 175.042L200.977 175.946V181.198L200.742 181.333V176.072L199.224 176.976V176.687L202.496 174.743V175.042Z" fill="#455A64"/>
<path d="M205.949 173.053L204.431 173.957V179.209L204.196 179.345V174.047L202.686 174.951V174.653L205.922 172.781L205.949 173.053Z" fill="#455A64"/>
<path d="M209.339 176.388L206.519 178.016V172.429L209.339 170.802V171.1L206.727 172.601V174.879V174.924L209.086 173.559V173.857L206.727 175.222V177.509V177.555L209.339 176.045V176.388Z" fill="#455A64"/>
<path d="M213.434 174.02L213.163 174.183L212.657 173.008C212.431 172.465 212.087 172.348 211.491 172.691L210.379 173.333V175.747L210.144 175.882V170.296L211.852 169.31C212.576 168.894 213.127 169.075 213.127 170.142C213.129 170.526 213.049 170.905 212.893 171.256C212.738 171.606 212.509 171.92 212.223 172.176C212.548 172.176 212.765 172.402 212.892 172.709L213.434 174.02ZM211.87 169.636L210.37 170.494V172.962V173.017L211.816 172.185C212.145 171.989 212.418 171.711 212.608 171.378C212.798 171.046 212.899 170.67 212.901 170.286C212.901 169.401 212.44 169.301 211.87 169.636Z" fill="#455A64"/>
<path d="M215.324 172.998C215.097 173.17 214.826 173.273 214.542 173.295C214.259 173.318 213.975 173.259 213.724 173.125L213.914 172.763C214.127 172.892 214.373 172.956 214.622 172.946C214.871 172.937 215.112 172.854 215.315 172.709C215.68 172.531 215.994 172.26 216.223 171.924C216.453 171.588 216.592 171.198 216.626 170.793C216.626 170.286 216.336 170.024 215.722 170.151L214.953 170.305C214.194 170.44 213.787 170.305 213.787 169.581C213.824 169.101 213.983 168.638 214.251 168.237C214.519 167.837 214.885 167.512 215.315 167.294C215.513 167.141 215.752 167.051 216.002 167.035C216.251 167.019 216.5 167.078 216.716 167.204L216.535 167.556C216.358 167.432 216.146 167.366 215.929 167.366C215.713 167.366 215.501 167.432 215.324 167.556C214.973 167.724 214.671 167.978 214.445 168.294C214.219 168.61 214.077 168.979 214.031 169.364C214.031 169.961 214.447 169.988 215.107 169.862L215.812 169.726C216.607 169.581 216.897 169.943 216.897 170.567C216.881 171.077 216.726 171.573 216.449 172.002C216.172 172.43 215.783 172.775 215.324 172.998Z" fill="#455A64"/>
<path d="M217.005 140.608L217.683 142.046L219.202 141.467L218.099 143.519L218.361 145.381L217.005 145.219L215.649 146.945L215.911 144.785L214.818 143.998L216.327 142.832L217.005 140.608Z" fill="#588FE1"/>
<path d="M190.925 155.669L190.247 157.893L188.728 159.059L189.822 159.845L189.569 162.006L190.925 160.279L192.272 160.442L192.019 158.58L193.112 156.528L191.603 157.106L190.925 155.669Z" fill="#588FE1"/>
<path d="M303.22 308.526L268.515 414.168L265.098 416.147L299.803 310.497L303.22 308.526Z" fill="#455A64"/>
<path d="M265.098 416.147L263.408 415.171L298.103 309.53L299.803 310.497L265.098 416.147Z" fill="#263238"/>
<path d="M312.983 388.494L311.292 387.527L277.094 322.366L278.794 323.343L312.983 388.494Z" fill="#263238"/>
<path d="M282.211 321.363L316.409 386.523L312.992 388.494L278.794 323.334L282.211 321.363Z" fill="#455A64"/>
<path d="M255.344 280.882L220.639 386.523L217.222 388.494L251.927 282.853L255.344 280.882Z" fill="#455A64"/>
<path d="M217.222 388.494L215.532 387.527L250.236 281.876L251.927 282.853L217.222 388.494Z" fill="#263238"/>
<path d="M265.107 360.85L263.417 359.873L229.218 294.713L230.918 295.689L265.107 360.85Z" fill="#263238"/>
<path d="M234.335 293.71L268.533 358.87L265.107 360.85L230.918 295.689L234.335 293.71Z" fill="#455A64"/>
<path d="M261.69 335.185L206.962 303.59L265.107 270.016L319.844 301.611L261.69 335.185Z" fill="#455A64"/>
<path d="M261.69 339.136V335.185L319.844 301.611V305.561L261.69 339.136Z" fill="#37474F"/>
<path d="M261.69 339.136V335.185L206.962 303.59L206.98 307.523L261.69 339.136Z" fill="#263238"/>
<path d="M261.717 331.235V283.847L215.107 257.025V304.413L261.717 331.235Z" fill="#588FE1"/>
<path d="M261.717 283.847L311.708 254.964V302.361L261.717 331.235V283.847Z" fill="#588FE1"/>
<path opacity="0.15" d="M261.717 283.847L311.708 254.964V302.361L261.717 331.235V283.847Z" fill="white"/>
<path d="M261.717 283.847L213.796 256.266L265.098 226.624L313.01 254.205L261.717 283.847Z" fill="#588FE1"/>
<path opacity="0.3" d="M261.717 283.847L213.796 256.266L265.098 226.624L313.01 254.205L261.717 283.847Z" fill="white"/>
<path d="M261.717 283.847V292.308L213.796 264.736V256.266L261.717 283.847Z" fill="#588FE1"/>
<path d="M313.01 254.205L261.717 283.847V292.308L313.01 262.675V254.205Z" fill="#588FE1"/>
<path opacity="0.15" d="M313.01 254.205L261.717 283.847V292.308L313.01 262.675V254.205Z" fill="white"/>
<path opacity="0.1" d="M215.152 265.487V267.349L261.762 294.171V292.308L215.152 265.487ZM311.753 263.426L261.762 292.354V294.216L311.753 265.288V263.426Z" fill="#37474F"/>
<path d="M248.003 260.144L254.847 264.095L278.794 250.263L271.95 246.322L248.003 260.144Z" fill="#588FE1"/>
<path opacity="0.2" d="M277.085 251.258L278.794 250.263L271.95 246.322L271.959 248.311L277.085 251.258Z" fill="#37474F"/>
<path opacity="0.1" d="M249.721 261.129L271.95 248.293V246.322L248.003 260.144L249.721 261.129Z" fill="#37474F"/>
<path d="M272.375 311.274L269.148 301.077L271.616 299.658L273.008 304.567C273.568 306.501 273.785 307.279 273.794 307.351H273.84C273.84 307.288 274.066 306.23 274.608 303.735L276.018 297.145L278.369 295.789L275.141 309.719L272.375 311.274Z" fill="#FAFAFA"/>
<path d="M283.259 292.688C286.026 291.097 288.023 292.525 288.023 296.214C288.023 299.902 286.026 303.636 283.259 305.254C280.493 306.872 278.486 305.416 278.486 301.737C278.486 298.058 280.493 294.288 283.259 292.688ZM283.259 302.497C284.078 301.943 284.743 301.192 285.195 300.314C285.647 299.436 285.87 298.458 285.845 297.47C285.845 295.301 284.76 294.55 283.259 295.409C282.439 295.965 281.772 296.718 281.32 297.6C280.869 298.482 280.646 299.463 280.674 300.453C280.674 302.605 281.759 303.364 283.259 302.497Z" fill="#FAFAFA"/>
<path d="M293.42 289.75V299.125L291.242 300.381V291.007L288.484 292.607V289.895L296.178 285.447V288.159L293.42 289.75Z" fill="#FAFAFA"/>
<path d="M297.308 284.823L303.898 281.017V283.729L299.477 286.279V288.349L302.732 286.469V288.882L299.477 290.763V292.968L303.997 290.374V293.086L297.344 296.928L297.308 284.823Z" fill="#FAFAFA"/>
<path d="M278.007 247.443L275.856 251.927L254.847 264.095L250.462 261.563L262.232 236.712L278.007 247.443Z" fill="#FAFAFA"/>
<path d="M386.008 319.483C386.424 321.526 387.192 323.885 387.816 328.053C388.44 332.22 387.472 332.392 390.474 342.842C392.282 349.107 391.947 351.602 387.762 356.89C383.242 362.558 378.55 361.41 375.476 355.136C372.855 349.776 373.008 347.281 372.999 341.721C372.99 336.161 372.936 334.543 372.656 330.132C372.412 326.245 372.764 323.587 372.502 320.613L386.008 319.483Z" fill="#37474F"/>
<path d="M387.4 334.715C386.559 329.291 386.361 323.75 386.053 320.106C385.366 311.97 387.183 295.834 385.909 283.567L363.209 281.497C363.968 286.279 370.242 307.902 372.52 320.956C372.52 320.956 373.424 338.675 374.663 346.476C374.716 346.717 374.823 346.943 374.975 347.138C375.126 347.333 375.32 347.492 375.54 347.602C375.761 347.713 376.004 347.773 376.251 347.779C376.498 347.784 376.743 347.734 376.968 347.633C380.237 346.323 383.843 346.104 387.246 347.009C387.485 347.099 387.741 347.132 387.994 347.104C388.247 347.077 388.49 346.99 388.703 346.851C388.916 346.711 389.093 346.524 389.22 346.303C389.347 346.083 389.421 345.835 389.434 345.581C389.389 342.697 388.033 338.756 387.4 334.715Z" fill="#B16668"/>
<path d="M322.276 277.112C323.117 293.836 323.288 306.592 323.108 313.796C323.115 317.359 322.443 320.891 321.128 324.202C319.926 327.257 317.837 331.669 316.102 333.612C316.102 333.612 310.506 339.606 311.582 340.166C312.657 340.727 324.192 341.441 328.758 340.166C333.323 338.892 335.086 335.05 336.821 328.044C338.557 321.038 340.112 310.777 340.112 310.777C339.91 310.399 339.761 309.994 339.669 309.575C339.118 307.523 341.305 297.253 341.902 292.146L322.276 277.112Z" fill="#B16668"/>
<path d="M344.216 321.101C344.035 322.837 342.724 324.889 342.282 327.601C341.761 330.691 341.549 333.825 341.649 336.957C341.748 340.79 341.757 341.332 341.757 341.332H340.573C340.573 341.332 340.428 335.8 340.374 333.368C340.32 330.936 339.145 328.803 337.978 328.568C337.978 328.595 338.467 321.245 344.216 321.101Z" fill="#263238"/>
<path d="M339.958 309.828C340.645 311.79 342.417 314.348 343.439 316.246C344.043 317.337 344.415 318.54 344.532 319.781C344.523 320.441 344.377 321.093 344.105 321.695C343.833 322.296 343.44 322.836 342.95 323.279C342.001 324.183 341.314 324.934 340.175 325.991C337.798 328.179 336.803 330.105 335.221 335.176C334.317 338.195 332.771 340.935 330.096 342.408C328.007 343.547 322.276 345.482 315.234 345.183C309.385 344.939 307.098 342.39 309.367 340.193C311.636 337.997 315.424 334.1 316.102 333.639C318.228 333.648 320.333 334.062 322.303 334.86C325.539 336.342 326.534 338.268 330.005 336.668C333.151 335.185 334.814 329.77 335.086 321.155C335.384 311.708 339.958 309.828 339.958 309.828Z" fill="#37474F"/>
<path d="M370.17 163.479C370.577 165.613 371.029 167.602 371.806 168.659C376.543 175.132 381.38 182.961 382.32 195.074C384.598 224.3 384.697 252.523 384.697 252.523C384.932 255.1 388.024 260.659 387.635 276.235C387.337 287.987 386.478 305.95 386.478 305.95C386.478 305.95 376.154 310.144 368.814 307.423C365.786 296.25 360.94 269.663 357.966 256.863C354.811 243.384 352.641 227.112 352.641 227.112L346.16 252.424C347.158 258.302 347.413 264.282 346.919 270.224C346.087 278.079 341.043 301.62 341.043 301.62C341.043 301.62 328.785 304.25 322.448 299.929C322.448 299.929 320.911 260.813 320.793 252.18C320.676 243.547 319.329 195.969 324.473 173.36C324.708 172.311 325.422 165.161 325.422 165.161C331.614 170.196 361.98 169.093 370.17 163.479Z" fill="#37474F"/>
<path d="M386.677 301.62C383.504 304.576 371.553 305.525 367.693 303.518L369.239 309.846C372.196 311.021 375.398 311.444 378.559 311.075C384.173 310.524 386.487 308.02 386.487 308.02L386.677 301.62Z" fill="#455A64"/>
<path d="M341.911 297.714C338.602 298.853 325.784 298.076 322.131 295.906L322.357 301.15C325.724 302.593 329.285 303.531 332.925 303.934C338.512 304.458 340.898 302.867 340.898 302.867L341.911 297.714Z" fill="#455A64"/>
<path d="M352.614 227.112L348.61 198.229C345.797 198.295 343.008 197.711 340.458 196.522C337.909 195.334 335.668 193.573 333.91 191.377C333.91 191.377 333.766 198.609 345.662 201.782L350.363 228.396L346.105 252.406L352.614 227.112Z" fill="#263238"/>
<path d="M298.456 144.459C295.102 141.937 292.552 140.057 288.674 133.864C287.593 132.399 286.33 131.077 284.914 129.932C283.567 128.651 282.462 127.138 281.65 125.466C281.298 124.625 279.155 125.529 279.571 128.44C279.887 130.601 281.198 132.572 281.723 133.801C280.584 133.801 278.757 133.647 276.299 133.801C273.84 133.955 268.913 133.693 269.817 136.513C270.016 137.146 270.531 137.679 270.549 138.321C270.528 138.627 270.476 138.929 270.395 139.225C270.286 139.816 270.339 140.425 270.547 140.988C270.756 141.551 271.113 142.048 271.58 142.425C271.813 142.565 272.013 142.753 272.167 142.977C272.42 143.465 272.231 144.061 272.339 144.577C272.478 145.166 272.775 145.707 273.198 146.141C273.804 146.792 274.002 146.566 274.608 147.216C275.006 147.641 275.087 148.581 276.018 149.205C276.714 149.666 278.387 149.72 280.168 149.693C281.949 149.666 282.961 150.254 285.33 150.182C287.192 150.127 288.946 151.176 292.046 154.358C298.989 160.975 299.875 163.136 306.103 168.189C306.653 168.644 307.227 169.069 307.821 169.464C313.715 173.523 316.047 170.368 320.703 162.169C326.425 152.089 329.39 146.376 329.39 146.376L338.575 118.994C332.916 119.635 326.263 126.036 321.236 133.295C318.877 136.703 309.105 151.709 309.105 151.709C305.778 149.639 301.818 146.981 298.456 144.459Z" fill="#B16668"/>
<path d="M278.685 135.473C278.934 135.542 279.176 135.633 279.408 135.745C279.649 135.862 279.869 136.017 280.059 136.206H279.987C281.119 135.987 282.292 136.169 283.305 136.721C283.558 136.876 283.784 137.071 283.974 137.3C284.187 137.551 284.297 137.874 284.281 138.204C284.271 138.378 284.215 138.546 284.118 138.692C283.995 138.827 283.835 138.921 283.657 138.963C283.368 139.026 283.106 139.062 282.834 139.117C282.301 139.225 281.777 139.406 281.225 139.532C280.668 139.66 280.095 139.702 279.526 139.659C278.409 139.577 277.306 139.355 276.244 138.999C276.786 139.124 277.336 139.209 277.89 139.252C278.441 139.315 278.983 139.379 279.535 139.388C280.076 139.395 280.616 139.337 281.144 139.216C281.677 139.089 282.202 138.9 282.753 138.773C283.033 138.71 283.323 138.665 283.567 138.601C283.811 138.538 283.883 138.448 283.919 138.176C283.964 137.724 283.558 137.272 283.124 137.019C282.179 136.48 281.086 136.255 280.005 136.377H279.96C279.799 136.188 279.606 136.029 279.39 135.907C279.168 135.743 278.932 135.598 278.685 135.473Z" fill="#9A4A4D"/>
<path d="M282.554 138.963C282.791 138.884 283.047 138.885 283.284 138.965C283.52 139.045 283.724 139.2 283.865 139.406C284.003 139.629 284.071 139.889 284.061 140.151C284.051 140.413 283.964 140.667 283.811 140.879C283.339 141.761 282.602 142.473 281.704 142.913C281.225 143.061 280.723 143.122 280.222 143.094C279.74 143.094 279.261 143.076 278.785 143.04C277.826 142.977 276.877 142.913 275.919 142.805C276.877 142.76 277.835 142.751 278.794 142.742C279.726 142.82 280.664 142.759 281.578 142.561C281.994 142.376 282.373 142.119 282.699 141.801C283.034 141.476 283.336 141.118 283.603 140.735C283.744 140.564 283.833 140.356 283.857 140.136C283.881 139.916 283.84 139.693 283.738 139.496C283.626 139.29 283.45 139.127 283.236 139.031C283.022 138.934 282.783 138.911 282.554 138.963Z" fill="#9A4A4D"/>
<path d="M282.138 142.47C282.345 142.378 282.568 142.331 282.794 142.331C283.02 142.331 283.243 142.378 283.449 142.47C283.558 142.527 283.653 142.606 283.728 142.703C283.803 142.799 283.856 142.911 283.883 143.031C283.924 143.264 283.924 143.503 283.883 143.736C283.726 144.169 283.462 144.555 283.115 144.857C282.816 145.213 282.438 145.494 282.012 145.68C281.568 145.765 281.115 145.789 280.665 145.752C280.241 145.778 279.818 145.827 279.399 145.897C278.55 146.032 277.691 146.177 276.832 146.294C277.664 146.023 278.495 145.806 279.345 145.616C279.775 145.51 280.214 145.44 280.656 145.408C281.071 145.431 281.487 145.401 281.894 145.318C282.268 145.162 282.601 144.924 282.871 144.622C283.18 144.358 283.43 144.032 283.603 143.664C283.64 143.47 283.64 143.27 283.603 143.076C283.591 142.983 283.558 142.894 283.506 142.815C283.454 142.737 283.386 142.672 283.305 142.624C282.95 142.425 282.532 142.37 282.138 142.47Z" fill="#9A4A4D"/>
<path d="M282.319 145.309C282.409 145.343 282.49 145.395 282.559 145.462C282.627 145.529 282.681 145.609 282.717 145.698C282.788 145.882 282.81 146.081 282.78 146.276C282.7 146.634 282.576 146.98 282.41 147.307C282.319 147.469 282.219 147.626 282.111 147.777C281.999 147.936 281.854 148.068 281.686 148.166C281.384 148.359 281.059 148.514 280.719 148.627L281.515 147.931C281.637 147.829 281.743 147.71 281.831 147.578C281.921 147.435 282.003 147.287 282.075 147.135C282.239 146.846 282.378 146.543 282.491 146.231C282.56 146.078 282.58 145.908 282.549 145.743C282.519 145.578 282.438 145.427 282.319 145.309Z" fill="#9A4A4D"/>
<path d="M284.1 138.158C283.955 139.741 284.436 141.317 285.44 142.549C286.444 143.781 287.891 144.571 289.47 144.748C288.311 144.785 287.162 144.533 286.125 144.016C285.266 143.616 284.513 143.018 283.928 142.272L283.757 142.995C283.531 142.615 283.422 142.29 282.392 142.389C282.854 141.96 283.261 141.474 283.603 140.943C283.91 140.346 284.353 139.406 283.088 138.845C283.351 138.813 283.61 138.746 283.856 138.646C283.951 138.612 284.03 138.542 284.075 138.451C284.12 138.36 284.129 138.255 284.1 138.158Z" fill="#9A4A4D"/>
<path d="M339.344 118.207C331.334 119.672 328.496 119.735 320.233 133.114C315.143 141.331 308.96 151.357 308.96 151.357L303.03 147.741C304.133 148.853 306.293 154.575 304.838 158.101C303.903 160.262 302.244 162.03 300.146 163.1C302.177 165.218 304.348 167.196 306.646 169.021C309.864 171.471 311.573 171.841 313.525 171.263C315.478 170.684 317.385 168.551 322.122 162.937C326.995 157.16 332.699 148.654 332.699 148.654L339.344 118.207Z" fill="#588FE1"/>
<path opacity="0.55" d="M339.344 118.207C331.334 119.672 328.496 119.735 320.233 133.114C315.143 141.331 308.96 151.357 308.96 151.357L303.03 147.741C304.133 148.853 306.293 154.575 304.838 158.101C303.903 160.262 302.244 162.03 300.146 163.1C302.177 165.218 304.348 167.196 306.646 169.021C309.864 171.471 311.573 171.841 313.525 171.263C315.478 170.684 317.385 168.551 322.122 162.937C326.995 157.16 332.699 148.654 332.699 148.654L339.344 118.207Z" fill="white"/>
<path opacity="0.35" d="M308.96 151.357C312.115 153.282 315.143 157.368 315.677 159.782C315.666 157.753 315.141 155.759 314.149 153.988C313.158 152.217 311.733 150.727 310.009 149.657L308.96 151.357Z" fill="#588FE1"/>
<path opacity="0.35" d="M303.093 165.866C303.623 165.586 304.123 165.253 304.585 164.872C305.53 164.122 306.327 163.202 306.935 162.16C308.076 160.128 308.514 157.776 308.183 155.47C308.183 155.352 308.291 155.352 308.318 155.47C308.919 157.927 308.537 160.523 307.252 162.702C306.596 163.79 305.748 164.749 304.747 165.531C304.34 165.845 303.911 166.129 303.464 166.381L303.021 165.983L303.093 165.866Z" fill="#588FE1"/>
<path d="M356.908 114.944L369.709 118.921C371.906 119.672 380.213 124.743 377.312 137.236C376.353 141.377 375.042 147.18 373.858 152.975C372.954 157.404 376.272 165.929 378.948 179.507C378.948 179.507 367.973 188.24 346.16 185.781C329.517 183.901 323.261 176.741 323.261 176.741C323.099 163.787 325.847 155.587 327.076 150.652C327.076 150.652 325.214 148.328 325.106 143.058C325.006 137.535 328.324 132.698 333.242 126.442C335.887 123.018 338.921 119.912 342.282 117.186L356.908 114.944Z" fill="#FAFAFA"/>
<path d="M328.378 99.3406C327.827 97.5326 325.747 97.3337 325.304 94.8206C324.861 92.3074 326.208 90.6802 328.215 89.5774C330.222 88.4745 330.647 86.4766 330.24 82.3454C329.833 78.2141 332.78 75.7281 336.189 75.2218C337.87 74.9778 339.805 75.1495 341.007 73.9201C341.468 73.3317 341.848 72.6841 342.137 71.9946C343.764 68.9933 346.783 67.6825 350.824 67.7096C352.639 67.6871 354.439 68.0251 356.122 68.704C358.057 69.4417 359.802 70.6031 361.229 72.103C363.444 71.7505 367.612 72.2296 369.872 74.2184C370.857 74.9182 371.691 75.8084 372.326 76.8363C372.961 77.8641 373.384 79.0089 373.569 80.2029C373.949 82.6527 373.723 84.0449 374.78 85.3738C376.932 88.0858 379.617 88.0858 380.837 90.3638C382.573 93.6182 378.297 96.4116 380.476 100.308C380.928 101.071 381.204 101.926 381.281 102.81C381.358 103.694 381.236 104.584 380.922 105.414C380.609 106.244 380.113 106.993 379.47 107.605C378.828 108.217 378.056 108.677 377.212 108.95C375.314 109.673 373.686 108.697 370.974 109.709C368.262 110.722 368.154 112.792 364.701 114.229C361.88 115.359 359.467 113.325 357.179 113.027C354.052 112.666 355.055 113.696 351.972 111.716C350.915 111.038 350.282 109.827 349.215 109.158C345.834 107.133 344.695 108.254 340.627 109.7C339.56 110.089 336.017 111.074 333.603 108.399C332.16 106.645 331.413 104.421 331.506 102.152C330.819 104.412 325.63 104.367 325.106 100.778C325.337 101.143 325.692 101.412 326.105 101.538C326.518 101.664 326.963 101.637 327.359 101.464C327.754 101.29 328.074 100.98 328.261 100.591C328.448 100.201 328.49 99.7579 328.378 99.3406Z" fill="#263238"/>
<path d="M361.799 112.186C361.799 110.125 362.215 104.882 362.215 104.882C362.974 106.817 366.482 106.889 368.199 104.502C370.369 101.483 370.36 97.8942 368.886 95.7065C367.25 93.2838 363.363 93.2205 361.654 96.9721C359.087 97.4512 358.12 93.5188 360.226 89.9118C360.271 81.2967 348.564 84.1986 346.205 76.4603C344.181 76.8328 342.27 77.6646 340.618 78.8917C338.966 80.1188 337.618 81.7086 336.677 83.5386C335.773 85.4551 335.619 86.6303 335.836 90.5085C335.917 92.0182 334.878 93.7719 334.579 95.7698C333.196 104.927 335.89 108.579 338.892 110.36C340.492 111.264 342.571 111.924 346.395 112.168C346.395 112.168 346.322 113.886 346.25 115.025C346.178 116.164 346.051 116.661 344.677 116.833C344.207 116.896 343.683 116.932 343.683 116.932C343.683 116.932 337.355 122.772 345.69 124.3C358.129 126.578 363.101 118.994 363.652 117.068C361.736 116.67 361.708 115.64 361.799 112.186Z" fill="#B16668"/>
<path d="M350.101 102.152L345.509 103.381C345.57 103.693 345.694 103.988 345.874 104.249C346.053 104.511 346.284 104.733 346.552 104.902C346.821 105.071 347.121 105.184 347.434 105.234C347.747 105.283 348.067 105.268 348.374 105.189C349.004 105.012 349.538 104.594 349.861 104.025C350.185 103.457 350.271 102.784 350.101 102.152Z" fill="#9A4A4D"/>
<path d="M349.767 103.164C349.164 103.119 348.564 103.285 348.069 103.633C347.575 103.981 347.216 104.489 347.055 105.072C347.484 105.208 347.945 105.208 348.374 105.072C348.811 104.947 349.205 104.704 349.512 104.369C349.818 104.034 350.025 103.62 350.11 103.174C349.993 103.201 349.848 103.174 349.767 103.164Z" fill="#F28F8F"/>
<path d="M338.141 88.2756L341.513 86.8744C341.431 86.6529 341.304 86.4505 341.141 86.2795C340.978 86.1084 340.782 85.9723 340.565 85.8793C340.347 85.7863 340.113 85.7384 339.877 85.7385C339.641 85.7387 339.407 85.7868 339.19 85.88C338.744 86.0723 338.388 86.4265 338.193 86.8712C337.999 87.3158 337.98 87.8177 338.141 88.2756Z" fill="#263238"/>
<path d="M354.549 89.3965L351.276 87.688C351.383 87.4729 351.531 87.2811 351.712 87.1239C351.894 86.9666 352.105 86.8471 352.333 86.7722C352.561 86.6973 352.801 86.6686 353.041 86.6877C353.28 86.7068 353.513 86.7733 353.726 86.8834C354.153 87.1228 354.475 87.514 354.628 87.9795C354.78 88.445 354.752 88.9508 354.549 89.3965Z" fill="#263238"/>
<path d="M346.377 112.15C352.189 111.843 358.734 109.791 360.841 106.636C360.841 106.636 359.991 109.845 357.631 111.201C354.166 113.098 350.273 114.075 346.322 114.04L346.377 112.15Z" fill="#9A4A4D"/>
<path d="M352.614 93.3199C352.616 93.6261 352.527 93.9258 352.358 94.1812C352.189 94.4366 351.949 94.6362 351.666 94.7545C351.384 94.8729 351.073 94.9048 350.772 94.8462C350.472 94.7876 350.196 94.6411 349.979 94.4253C349.761 94.2094 349.613 93.934 349.553 93.6339C349.493 93.3338 349.523 93.0225 349.639 92.7395C349.756 92.4565 349.954 92.2146 350.209 92.0443C350.463 91.874 350.762 91.7831 351.068 91.7831C351.477 91.7831 351.869 91.9448 352.158 92.2327C352.448 92.5207 352.612 92.9115 352.614 93.3199Z" fill="#263238"/>
<path d="M341.513 92.6057C341.513 92.9119 341.422 93.2111 341.252 93.4655C341.082 93.7199 340.84 93.918 340.557 94.0348C340.274 94.1515 339.962 94.1816 339.662 94.1212C339.362 94.0608 339.087 93.9127 338.871 93.6956C338.655 93.4785 338.509 93.2022 338.45 92.9017C338.391 92.6013 338.423 92.2902 338.542 92.0079C338.66 91.7256 338.86 91.4848 339.115 91.316C339.37 91.1472 339.67 91.0581 339.976 91.0599C340.179 91.0599 340.379 91.0999 340.567 91.1777C340.754 91.2555 340.923 91.3695 341.066 91.5132C341.209 91.6569 341.322 91.8274 341.399 92.0149C341.475 92.2024 341.514 92.4032 341.513 92.6057Z" fill="#263238"/>
<path d="M339.714 98.6445L344.686 100.751L345.997 90.8339L339.714 98.6445Z" fill="#9A4A4D"/>
<path d="M366.192 103.589C366.18 103.756 366.135 103.918 366.06 104.066C365.985 104.215 365.881 104.348 365.755 104.456C365.628 104.565 365.482 104.648 365.323 104.7C365.165 104.752 364.998 104.773 364.832 104.76C364.666 104.748 364.503 104.702 364.355 104.627C364.206 104.552 364.073 104.449 363.965 104.322C363.856 104.196 363.773 104.049 363.721 103.891C363.669 103.733 363.649 103.566 363.661 103.4C363.686 103.064 363.844 102.752 364.099 102.532C364.354 102.313 364.686 102.204 365.022 102.229C365.357 102.254 365.669 102.411 365.889 102.667C366.108 102.922 366.217 103.254 366.192 103.589Z" fill="#EBEBEB"/>
<path d="M346.133 115.802C345.536 116.019 341.54 117.285 339.344 118.207C334.111 122.434 329.735 127.623 326.452 133.494C324.156 137.86 322.963 141.63 322.836 148.753C322.737 154.946 321.987 173.342 320.757 183.575C321.426 185.971 328.116 188.818 328.116 188.818C328.459 179.616 328.622 150.778 330.611 140.997C332.97 129.39 343.366 118.786 345.789 117.122L346.133 115.802Z" fill="#588FE1"/>
<path d="M361.808 115.088V116.987C356.059 131.939 357.188 138.791 357.921 148.627C359.665 172.131 362.441 192.434 362.441 192.434C362.441 192.434 378.857 192.606 384.706 184.696C384.706 184.696 379.445 172.818 377.474 160.822C376.308 153.707 379.626 139.126 378.378 128.829C377.872 124.526 376.245 120.232 373.018 119.22C370.351 118.379 368.036 117.701 368.036 117.701L361.808 115.088Z" fill="#588FE1"/>
<path d="M382.22 197.37C384.824 198.112 388.141 194.875 389.054 193.754C389.968 192.633 388.792 189.958 388.241 187.707C387.689 185.456 388.241 181.65 385.457 182.717C382.672 183.783 376.805 191.305 382.22 197.37Z" fill="#9A4A4D"/>
<path d="M373.542 119.789C381.967 121.543 382.79 121.29 386.767 129.29C391.405 138.601 397.968 153.807 399.622 157.314C401.277 160.822 402.877 163.452 398.42 168.921C394.451 173.794 382.726 187.824 380.982 189.831C379.445 191.639 381.172 196.846 386.46 196.087C386.46 196.087 382.437 199.648 380.222 199.251C378.315 198.916 373.497 195.978 370.739 190.211C369.004 186.595 370.459 183.693 373.099 179.625C376.254 174.77 384.064 161.78 384.064 161.78L372.448 138.574C372.448 138.574 367.386 126.207 373.542 119.789Z" fill="#B16668"/>
<path d="M373.036 119.22C370.993 121.254 367.747 128.883 372.267 139.912L383.649 161.816L378.577 169.952C378.577 169.952 382.193 174.662 385.24 176.813C386.068 177.438 387.018 177.882 388.029 178.117C389.039 178.352 390.088 178.373 391.107 178.178C391.107 178.178 397.624 170.946 399.93 167.773C402.235 164.6 402.642 163.687 399.704 156.564C396.865 149.693 387.843 128.775 385.909 125.575C383.974 122.375 381.488 120.232 373.036 119.22Z" fill="#588FE1"/>
<path opacity="0.55" d="M373.036 119.22C370.993 121.254 367.747 128.883 372.267 139.912L383.649 161.816L378.577 169.952C378.577 169.952 382.193 174.662 385.24 176.813C386.068 177.438 387.018 177.882 388.029 178.117C389.039 178.352 390.088 178.373 391.107 178.178C391.107 178.178 397.624 170.946 399.93 167.773C402.235 164.6 402.642 163.687 399.704 156.564C396.865 149.693 387.843 128.775 385.909 125.575C383.974 122.375 381.488 120.232 373.036 119.22Z" fill="white"/>
<path opacity="0.35" d="M386.008 170.702C385.155 170.048 384.354 169.329 383.612 168.551C382.883 167.798 382.215 166.988 381.615 166.128C381.515 165.983 381.398 165.776 381.307 165.622L380.918 166.237C380.99 166.336 381.056 166.438 381.117 166.544C381.722 167.398 382.387 168.207 383.106 168.967C383.84 169.741 384.635 170.454 385.484 171.1C386.367 171.837 387.35 172.445 388.404 172.908C388.693 173.017 388.711 172.619 388.53 172.483C387.662 171.85 386.785 171.326 386.008 170.702Z" fill="#588FE1"/>
<path d="M145.77 347.272C146.475 347.208 146.493 348.926 146.05 349.749C144.803 352.117 141.313 354.666 136.206 355.796C131.098 356.926 121.109 355.579 118.126 355.462C115.142 355.344 109.872 356.89 106.853 357.369C101.356 358.273 97.5958 356.736 95.7969 354.974C95.5012 354.615 95.282 354.2 95.153 353.754C95.0239 353.308 94.9877 352.84 95.0466 352.379C95.1008 350.291 95.2816 349.866 95.5166 349.884L145.77 347.272Z" fill="#37474F"/>
<path d="M96.0681 343.791C95.5405 346.264 95.3761 348.801 95.5799 351.322C96.2217 352.876 97.9213 353.762 99.2773 354.187C102.893 355.317 106.401 355.091 110.351 354.26C112.896 353.607 115.517 353.303 118.144 353.356C121.272 353.527 128.169 354.26 131.306 354.26C134.233 354.304 137.139 353.744 139.84 352.614C141.91 351.647 145.047 349.523 145.752 347.913C146.43 344.162 146.041 341.92 143.881 340.681C141.72 339.443 138.312 339.063 133.792 338.72C132.445 338.62 130.736 338.539 130.013 338.458C127.301 338.159 124.725 337.96 122.655 337.825C120.891 337.84 119.145 337.46 117.547 336.713C116.811 336.384 116.215 335.804 115.866 335.077C115.432 334.118 115.441 332.717 114.6 332.636C114.6 332.636 99.1417 335.267 97.8941 335.393C96.4658 335.538 97.406 337.608 96.0681 343.791Z" fill="#455A64"/>
<path d="M131.234 338.322C131.701 338.689 132.089 339.147 132.373 339.669C132.685 340.239 132.922 340.846 133.078 341.477C133.286 342.263 132.309 342.381 131.93 341.477C131.647 340.722 131.277 340.003 130.827 339.335C130.504 338.867 130.027 338.528 129.48 338.376L128.702 338.295C128.91 337.734 130.628 337.924 131.234 338.322Z" fill="#FAFAFA"/>
<path d="M124.255 337.508C124.515 337.472 124.78 337.493 125.031 337.569C125.283 337.646 125.514 337.776 125.71 337.951C126.218 338.383 126.596 338.946 126.804 339.579C127.074 340.338 127.283 341.118 127.428 341.911C127.482 342.417 126.289 342.399 126.162 341.848C126.036 341.296 125.764 340.293 125.547 339.723C125.412 339.371 124.797 338.042 123.975 337.915H123.604C123.604 337.734 123.83 337.617 123.993 337.581C124.077 337.548 124.165 337.524 124.255 337.508Z" fill="#FAFAFA"/>
<path d="M120.16 337.382C120.512 337.449 120.83 337.634 121.064 337.906C121.342 338.279 121.559 338.694 121.705 339.136C121.952 339.944 122.074 340.785 122.067 341.631C122.067 342.282 120.892 342.11 120.856 341.631C120.729 340.257 120.729 339.353 120.069 338.349C119.822 337.912 119.471 337.543 119.048 337.273C119.048 337.156 119.256 337.138 119.373 337.165C119.639 337.223 119.902 337.296 120.16 337.382Z" fill="#FAFAFA"/>
<path d="M96.1585 318.741C96.1585 318.741 97.4964 332.961 97.8309 336.243C97.9394 337.291 99.9282 337.716 100.95 338.159C102.226 338.635 103.414 339.32 104.466 340.184C107.061 342.761 108.986 343.366 110.586 338.846C110.639 338.628 110.737 338.423 110.874 338.246C111.012 338.068 111.185 337.922 111.384 337.817C111.582 337.712 111.801 337.65 112.025 337.636C112.249 337.621 112.474 337.655 112.684 337.734C113.555 338.033 114.476 338.161 115.396 338.114C115.531 338.024 115.45 337.816 115.396 337.68C114.993 337.178 114.703 336.595 114.547 335.971C114.391 335.347 114.372 334.696 114.492 334.064C114.935 328.242 115.179 322.412 115.513 316.581L96.1585 318.741Z" fill="#FFBDA7"/>
<path d="M46.3661 308.309C48.1741 305.371 48.7798 299.911 50.0997 289.768L66.8146 298.383L59.664 315.939C59.369 316.701 59.1421 317.487 58.986 318.289C56.952 321.173 46.3661 308.309 46.3661 308.309Z" fill="#FFBDA7"/>
<path d="M40.8156 314.592C40.8156 314.42 40.7433 313.028 40.8156 312.865C41.2043 311.374 42.1264 310.958 43.3106 310.153C44.4982 309.353 45.5874 308.415 46.556 307.36C46.9537 306.809 47.0261 306.528 47.6408 306.275C48.6894 305.85 50.3528 305.814 52.4501 306.908C55.8581 308.716 56.8977 310.849 56.6989 313.182C56.5542 314.99 56.4005 317.322 57.9735 318.38C58.6244 318.823 59.6549 315.975 59.6549 315.975C60.6222 317.602 59.2662 319.844 58.5521 323.126C58.1432 324.941 58.1125 326.821 58.4617 328.649C58.8052 331.533 59.2029 331.515 60.7307 331.723C62.0505 331.895 65.7931 331.641 68.0621 333.233C71.199 335.42 70.3583 338.331 70.3583 338.331C69.9515 339.443 66.5434 344.813 54.0863 342.806C50.4703 342.227 42.8767 336.55 42.9942 336.017C43.0574 335.473 43.0574 334.924 42.9942 334.381C42.9942 333.115 42.8948 331.84 42.8405 330.566C42.8804 329.356 42.8077 328.146 42.6236 326.95C42.3967 325.962 42.2426 324.959 42.1625 323.948C41.9275 321.39 41.6834 318.832 41.4484 316.273C41.358 315.496 40.68 315.306 40.8156 314.592Z" fill="#455A64"/>
<path d="M39.2426 314.077C38.0132 315.261 38.7635 318.714 40.4088 322.855C41.141 324.663 42.497 327.845 42.0993 331.208C41.7015 334.57 41.6292 336.152 42.497 337.734C43.853 340.193 51.0941 343.348 55.3609 344.334C52.7793 340.719 51.2748 336.447 51.0217 332.012C50.5878 324.59 50.0273 319.808 46.6373 316.527C42.3433 312.359 39.2426 314.077 39.2426 314.077Z" fill="#37474F"/>
<path d="M70.3583 338.295C70.3583 338.295 67.8633 342.978 58.2266 342.815C54.4298 342.752 52.4049 340.908 52.3054 335.14C52.1969 328.188 51.6365 321.173 49.3945 317.729C47.1526 314.285 43.5637 312.603 40.7885 312.847C40.1384 313.046 39.5868 313.482 39.2426 314.068C39.2426 314.068 42.0179 313.164 46.3481 316.78C49.5392 319.428 50.398 324.961 50.3528 331.831C50.3528 334.787 50.1539 338.159 51.0217 340.383C51.4204 341.369 52.0441 342.248 52.8431 342.949C53.642 343.651 54.5941 344.156 55.6231 344.424C60.8573 345.889 68.026 343.466 69.843 341.251C70.1476 340.83 70.3522 340.345 70.4415 339.832C70.5308 339.32 70.5023 338.794 70.3583 338.295Z" fill="#37474F"/>
<path d="M58.76 330.421C59.1503 330.696 59.4267 331.105 59.5374 331.569C59.5781 332.162 59.4586 332.756 59.1914 333.287C58.9242 333.818 58.5192 334.267 58.0187 334.589C57.4402 334.95 56.9339 334.824 57.856 333.603C58.449 332.648 58.7622 331.545 58.76 330.421Z" fill="#FAFAFA"/>
<path d="M58.2628 326.823C58.2628 326.823 58.5701 327.022 58.6515 327.989C58.6515 328.505 57.8831 330.593 56.8435 331.09C55.8039 331.587 56.3825 330.412 56.8435 329.842C57.5399 328.957 58.0253 327.924 58.2628 326.823Z" fill="#FAFAFA"/>
<path d="M58.6063 322.855C58.6063 322.855 58.9408 322.945 58.6063 324.274C58.1259 325.095 57.3843 325.731 56.5 326.082C55.8491 326.154 55.5327 325.829 56.3373 325.25C56.952 324.825 58.4888 323.496 58.6063 322.855Z" fill="#FAFAFA"/>
<path d="M64.8439 305.1C64.8439 305.1 67.9085 297.913 78.8197 273.514C82.1194 266.129 82.9781 260.65 83.8098 257.025C84.7138 253.256 88.4021 234.678 88.4021 234.678L93.1572 265.577C92.2345 269.587 91.6688 273.671 91.4667 277.781C91.4667 282.88 92.1085 290.627 93.5549 301.141C95.7607 317.205 96.3573 325.549 96.3573 325.549C97.4873 326.362 101.076 327.944 107.205 327.601C110.007 327.313 112.74 326.552 115.287 325.35C115.287 325.35 116.679 308.635 117.258 296.982C117.791 286.225 118.677 274.066 119.129 267.575C120.033 255.389 120.268 250.137 120.395 230.927C120.521 211.039 119.003 181.713 119.003 181.713L62.4935 180.411C62.4935 180.411 58.7781 188.71 59.9171 205.868C59.4741 222.619 56.9881 254.503 56.9881 254.503C53.8783 262.045 51.866 269.994 51.0127 278.107C50.181 286.026 48.9245 296.458 48.9245 296.458C54.9451 296.241 61.5262 300.128 64.8439 305.1Z" fill="#588FE1"/>
<path opacity="0.2" d="M88.4473 234.841L85.3285 212.702C85.3285 212.702 77.9971 212.133 69.1921 204.801C69.1921 204.801 70.3493 211.364 82.8425 215.848L86.106 238.891L83.7375 257.64C83.7375 257.64 88.3931 235.266 88.4473 234.841Z" fill="#37474F"/>
<path d="M132.526 159.927L134.488 160.261L135.654 161.897C135.482 162.265 135.393 162.666 135.393 163.073C135.393 163.479 135.482 163.88 135.654 164.248C136.26 165.45 137.137 165.07 137.137 165.07L138.041 162.892L138.402 159.863L135.934 157.685L133.512 157.206L132.526 159.927Z" fill="#B16668"/>
<path d="M139.65 158.932C139.908 159.786 139.939 160.693 139.74 161.563C139.525 162.349 139.247 163.117 138.909 163.859C138.656 164.392 137.661 164.392 137.046 163.054C136.54 161.952 137.254 159.493 137.254 159.493L139.65 158.932Z" fill="#F0997A"/>
<path d="M143.347 155.895C143.618 157.287 144.45 159.899 144.604 160.912C144.758 161.924 143.501 161.816 143.501 161.816L140.536 157.549L143.347 155.895Z" fill="#F0997A"/>
<path d="M132.228 145.544C133.557 145.002 133.53 144.984 135.356 145.951C137.835 147.336 140.202 148.914 142.434 150.67C143.664 151.773 143.338 153.915 143.338 155.759C143.338 157.603 143.673 159.592 143.338 160.107C143.293 160.181 143.234 160.245 143.163 160.295C143.093 160.345 143.013 160.381 142.929 160.399C142.844 160.418 142.757 160.419 142.672 160.403C142.587 160.387 142.506 160.354 142.434 160.306L132.228 145.544Z" fill="#FFBDA7"/>
<path d="M143.808 162.223L145.399 167.773C145.408 167.809 145.405 167.847 145.392 167.881C145.379 167.915 145.355 167.945 145.325 167.965C145.295 167.986 145.258 167.997 145.222 167.996C145.185 167.996 145.149 167.984 145.119 167.963L140.464 164.528L143.808 162.223Z" fill="#FFA8A7"/>
<path d="M145.146 167.972L140.464 164.528L142.272 163.317L142.678 163.904L145.273 167.8L145.146 167.972Z" fill="#F28F8F"/>
<path d="M145.119 167.963C145.149 167.984 145.185 167.996 145.222 167.996C145.258 167.997 145.295 167.986 145.325 167.965C145.355 167.945 145.379 167.915 145.392 167.881C145.405 167.847 145.408 167.809 145.399 167.773L145.083 166.689C145 166.855 144.87 166.994 144.71 167.089C144.549 167.183 144.365 167.229 144.179 167.222H144.08L145.119 167.963Z" fill="#263238"/>
<path d="M124.372 141.331L124.68 141.765L125.041 142.299L140.464 164.528C141.099 164.655 141.759 164.543 142.317 164.212C142.703 164.026 143.039 163.751 143.298 163.41C143.557 163.069 143.732 162.671 143.808 162.25L128.368 140.03L127.663 139.017C128.106 139.704 124.797 142.009 124.372 141.331Z" fill="#455A64"/>
<path d="M124.372 141.331L124.68 141.765L125.041 142.299L140.464 164.528C140.851 164.603 141.249 164.592 141.632 164.497C142.014 164.401 142.371 164.224 142.678 163.977L126.623 140.572C126.687 140.527 126.687 140.491 126.623 140.473C125.755 141.151 124.607 141.711 124.372 141.331Z" fill="#37474F"/>
<path d="M125.52 143.004L126.207 143.98C126.397 144.269 127.111 144.034 127.871 143.609C128.856 143.058 129.769 142.046 129.516 141.657L129.019 140.934L128.838 140.68C129.082 141.069 128.169 142.082 127.184 142.633C126.47 143.04 125.764 143.275 125.548 143.031L125.52 143.004Z" fill="#EBEBEB"/>
<path d="M125.656 143.248C126.099 143.926 129.408 141.594 128.974 140.925L128.368 139.939C128.802 140.617 125.493 142.94 125.05 142.262L125.656 143.248Z" fill="#37474F"/>
<path d="M124.372 141.331L125.041 142.299C125.466 142.968 128.657 140.753 128.395 140.03L127.708 139.053C128.106 139.704 124.797 142.009 124.372 141.331Z" fill="#EBEBEB"/>
<path d="M122.944 139.324L124.363 141.331C124.544 141.621 125.267 141.386 126.009 140.97C126.994 140.418 127.925 139.406 127.681 139.017L126.253 137.001C125.683 136.179 123.884 137.137 123.125 138.167C122.982 138.32 122.888 138.512 122.856 138.718C122.824 138.924 122.854 139.136 122.944 139.324Z" fill="#F28F8F"/>
<path opacity="0.1" d="M124.318 139.469C124.776 139.321 125.193 139.068 125.537 138.73C125.88 138.393 126.141 137.981 126.298 137.526C126.329 137.416 126.333 137.3 126.309 137.188C126.286 137.076 126.235 136.972 126.162 136.884C125.502 136.287 123.848 137.191 123.134 138.167C122.994 138.318 122.902 138.506 122.868 138.708C122.834 138.911 122.861 139.119 122.944 139.306C123.161 139.614 123.676 139.695 124.318 139.469Z" fill="#37474F"/>
<path d="M132.581 153.165C133.964 154.584 135.51 154.973 138.176 155.705C139.437 156.202 140.63 156.855 141.729 157.649C142.787 158.363 143.284 159.683 141.259 160.623C139.903 161.256 138.185 160.469 136.739 160.189C136.015 160.051 135.279 159.991 134.542 160.008C132.445 160.135 132.083 160.804 129.715 161.337C127.346 161.87 125.457 161.283 124.137 161.509C122.817 161.735 92.0091 170.964 92.0091 170.964L91.6837 153.788C91.6837 153.788 117.439 151.854 121.588 151.14C124.951 150.552 128.928 147.804 128.928 147.804L132.581 153.165Z" fill="#FFBDA7"/>
<path d="M124.182 150.362C123.334 150.725 122.449 150.995 121.543 151.167C117.393 151.881 91.6385 153.816 91.6385 153.816L91.9639 170.992C91.9639 170.992 122.772 161.771 124.092 161.536C124.393 161.505 124.696 161.505 124.996 161.536L124.182 150.362Z" fill="#F0997A"/>
<path d="M139.496 151.158C139.288 151.447 138.984 151.653 138.639 151.74C138.293 151.828 137.928 151.791 137.607 151.637C137.064 151.348 135.266 149.928 135.266 149.928L139.786 156.41C139.638 155.841 139.66 155.241 139.849 154.683C139.982 154.484 140.154 154.314 140.355 154.182C140.555 154.05 140.779 153.959 141.015 153.915C140.509 153.836 139.991 153.946 139.56 154.222C139.233 154.046 138.953 153.794 138.744 153.487C138.535 153.18 138.402 152.828 138.357 152.46C139.514 151.655 139.496 151.158 139.496 151.158Z" fill="#F0997A"/>
<path d="M62.0957 109.881C58.3532 117.032 58.6334 125.132 59.7182 135.193C60.7126 144.432 61.4087 150.163 62.2585 161.599C63.28 174.626 61.472 182.87 61.472 182.87C61.472 182.87 69.0565 193.402 85.3466 197.551C113.967 204.837 120.006 195.409 120.006 195.409C120.006 195.409 119.753 185.465 119.789 177.735C119.789 170.766 119.662 162.512 119.427 155.651C118.876 139.894 118.695 126.804 116.869 121.19C115.522 118.08 114.112 116.851 110.668 115.287C107.829 113.994 102.414 111.373 98.3733 109.809C90.9445 107.122 83.3833 104.817 75.719 102.902C73.0112 102.575 70.2673 103.064 67.8397 104.308C65.4121 105.551 63.4118 107.492 62.0957 109.881Z" fill="#37474F"/>
<path d="M100.452 102.902L98.3913 109.809C93.5278 109.963 82.49 108.001 80.1938 105.786L82.3182 97.632L100.452 102.902Z" fill="#FFBDA7"/>
<path d="M116.67 83.2494C116.67 83.2494 118.542 85.2834 119.138 91.2679L115.522 93.0759C115.17 88.8542 114.808 84.5783 116.67 83.2494Z" fill="#F0997A"/>
<path d="M111.31 65.8293C117.24 67.339 119.446 73.3054 116.065 85.645C116.48 99.0875 111.671 103.49 109.737 104.873C105.596 106.193 101.709 105.777 96.7642 103.508C92.9945 101.7 83.5025 96.9179 80.4922 89.948C76.8762 81.7126 77.6626 70.3312 83.6923 67.1582C92.0995 62.6472 108.173 65.0338 111.31 65.8293Z" fill="#FFBDA7"/>
<path d="M110.858 96.0952C110.927 96.127 110.988 96.1732 111.038 96.2308C111.038 96.2308 111.038 96.3303 111.111 96.3755C111.166 96.481 111.226 96.5836 111.291 96.6828C111.436 96.8959 111.606 97.0903 111.798 97.2614C112.157 97.5658 112.559 97.8156 112.991 98.0027C113.007 98.0096 113.02 98.021 113.03 98.0354C113.04 98.0498 113.045 98.0667 113.045 98.084C113.056 98.1033 113.062 98.1251 113.062 98.1473C113.062 98.1695 113.056 98.1914 113.045 98.2106C112.955 98.2829 112.792 98.2106 112.684 98.2106C112.559 98.1774 112.438 98.132 112.322 98.075C112.07 97.9554 111.834 97.8067 111.617 97.632C111.406 97.4644 111.217 97.2699 111.056 97.0535C110.976 96.9476 110.903 96.8358 110.839 96.719L110.749 96.5563C110.712 96.454 110.712 96.3422 110.749 96.2399C110.749 96.2399 110.785 96.0591 110.858 96.0952Z" fill="#F0997A"/>
<path d="M109.691 104.864C108.598 105.632 102.938 106.338 99.7473 105.37L100.489 102.893C103.452 103.967 106.548 104.63 109.691 104.864Z" fill="#F0997A"/>
<path d="M110.044 74.7337C109.907 75.7525 109.452 76.702 108.742 77.4457C107.743 78.4754 106.41 79.1162 104.981 79.2537C105.533 81.0069 105.66 82.8658 105.352 84.6777C105.295 85.2537 105.065 85.7989 104.692 86.2416C104.568 86.4059 104.399 86.532 104.207 86.6055C104.014 86.679 103.805 86.697 103.602 86.6575C103.4 86.618 103.212 86.5224 103.062 86.3818C102.911 86.2412 102.802 86.0611 102.749 85.8619C102.49 84.8211 102.11 83.8139 101.619 82.8607C100.963 81.7224 99.9104 80.8662 98.6625 80.456C93.9346 79.1 92.5334 86.5942 93.9979 89.496C96.3935 94.233 99.4761 92.0453 99.4761 92.0453C99.4761 92.0453 99.9191 98.753 94.7663 100.678C94.7663 100.678 86.7388 101.872 82.1103 98.3462C78.4943 92.7233 75.1314 86.4043 74.4353 81.3329C72.9166 70.2951 76.2433 64.0303 81.1159 63.1263C82.4629 59.2301 86.6574 57.4221 90.5175 56.7983C95.7607 55.8943 100.254 58.3713 105.298 59.2572C107.883 59.7139 110.538 59.5779 113.063 58.8595C114.184 58.5431 115.549 58.1634 116.372 58.9589C116.685 59.2908 116.89 59.7101 116.96 60.1612C117.125 60.9576 117.1 61.7815 116.888 62.5667C116.676 63.3518 116.282 64.0761 115.739 64.6812C117.231 63.9851 119.491 64.8258 120.639 66.1095C122.275 67.9175 122.248 69.7888 121.118 72.1482C120.413 73.5494 116.39 77.8706 110.044 74.7337Z" fill="#263238"/>
<path d="M81.1973 64.184L77.0841 60.7307C77.5526 60.1881 78.2169 59.853 78.9318 59.7988C79.6467 59.7446 80.354 59.9756 80.899 60.4415C81.1681 60.665 81.3898 60.9402 81.5509 61.2508C81.7121 61.5614 81.8094 61.9011 81.8372 62.2498C81.865 62.5986 81.8227 62.9495 81.7128 63.2816C81.6029 63.6138 81.4276 63.9206 81.1973 64.184Z" fill="#263238"/>
<path d="M163.1 188.231C162.033 187.164 160.966 186.215 160.08 185.374C159.348 184.678 158.399 183.72 156.772 181.93C156.085 181.162 155.325 181.541 153.897 181.071C152.469 180.601 152.894 179.471 151.999 179.046C150.95 178.54 150.588 178.856 149.576 178.386C148.328 177.817 147.686 176.479 146.159 177.048C143.402 178.07 142.543 179.345 138.719 175.828C129.299 167.122 123.495 161.563 123.495 161.563C123.495 161.563 121.687 137.724 120.946 132.228C119.907 124.77 120.142 119.572 110.387 116.39C110.387 116.39 102.568 120.006 103.155 134.154C103.689 146.385 105.117 158.435 105.867 164.329C106.473 169.301 107.359 169.925 113.588 174.228C128.883 184.805 131.243 186.495 133.168 187.734C135.754 189.397 138.42 191.35 141.304 191.54C143.953 191.675 147.75 189.939 149.603 188.927C152.577 187.309 155.027 186.468 155.976 186.703C156.925 186.938 158.688 188.818 160.496 189.307C162.304 189.795 163.624 188.746 163.1 188.231Z" fill="#FFBDA7"/>
<path d="M110.686 115.287C115.206 117.339 117.014 118.415 119.382 122.275C120.946 124.824 121.19 127.591 121.868 134.352C122.438 140.265 123.224 151.528 123.224 151.528C123.224 151.528 122.212 154.24 115.64 156.383C111.844 157.685 107.715 157.637 103.951 156.247C103.951 156.247 102.658 144.45 102.215 139.569C101.61 132.951 101.112 120.232 110.686 115.287Z" fill="#588FE1"/>
<path d="M279.978 58.0097L306.393 73.2873C306.908 73.5947 307.297 74.3269 307.297 75.7371V108.019C307.297 107.802 306.872 108.534 306.348 108.824L302.596 110.957C302.303 111.104 301.979 111.181 301.651 111.181C301.323 111.181 301 111.104 300.707 110.957L274.292 95.6794C274.024 95.4956 273.803 95.2521 273.646 94.9681C273.489 94.684 273.401 94.3674 273.388 94.0431V61.7613C273.405 61.4342 273.5 61.1159 273.666 60.8329C273.831 60.5499 274.061 60.3104 274.337 60.1341L278.088 58.0007C278.383 57.857 278.707 57.7831 279.034 57.7846C279.362 57.7862 279.685 57.8632 279.978 58.0097Z" fill="#588FE1"/>
<path opacity="0.2" d="M300.743 110.948C301.036 111.093 301.36 111.168 301.687 111.168C302.015 111.168 302.338 111.093 302.632 110.948L306.384 108.815C306.908 108.525 307.333 107.793 307.333 108.01V75.7371C307.418 75.1182 307.314 74.488 307.035 73.9291L301.403 77.1655C301.583 77.4547 301.683 77.7892 301.683 77.283V109.556C301.683 110.957 301.294 111.273 300.743 110.948Z" fill="#37474F"/>
<path opacity="0.3" d="M273.397 61.5896C273.478 61.1105 273.867 60.9477 274.301 61.2099L300.707 76.4965C300.986 76.6674 301.215 76.9111 301.366 77.2017L306.998 73.9653C306.842 73.6879 306.618 73.4546 306.348 73.2873L279.942 58.0097C279.649 57.8626 279.325 57.786 278.997 57.786C278.669 57.786 278.345 57.8626 278.052 58.0097L274.301 60.1432C274.059 60.3091 273.853 60.5232 273.698 60.7721C273.542 61.021 273.44 61.2993 273.397 61.5896Z" fill="white"/>
<path d="M309.918 98.8615C310.506 98.5089 315.026 95.9687 315.171 95.8783C315.276 95.807 315.366 95.7141 315.433 95.6058C315.5 95.4975 315.544 95.3762 315.561 95.2499C315.578 95.1235 315.568 94.995 315.532 94.8727C315.496 94.7504 315.434 94.6372 315.351 94.5404L307.36 85.3376L301.683 88.592L310.072 97.5416C310.153 97.6363 310.214 97.7468 310.251 97.8662C310.287 97.9856 310.299 98.1112 310.284 98.2352C310.27 98.3592 310.23 98.4789 310.167 98.5866C310.104 98.6944 310.019 98.788 309.918 98.8615Z" fill="#588FE1"/>
<path opacity="0.3" d="M309.918 98.8615C310.506 98.5089 315.026 95.9687 315.171 95.8783C315.276 95.807 315.366 95.7141 315.433 95.6058C315.5 95.4975 315.544 95.3762 315.561 95.2499C315.578 95.1235 315.568 94.995 315.532 94.8727C315.496 94.7504 315.434 94.6372 315.351 94.5404L307.36 85.3376L301.683 88.592L310.072 97.5416C310.153 97.6363 310.214 97.7468 310.251 97.8662C310.287 97.9856 310.299 98.1112 310.284 98.2352C310.27 98.3592 310.23 98.4789 310.167 98.5866C310.104 98.6944 310.019 98.788 309.918 98.8615Z" fill="white"/>
<path d="M274.328 61.2189L300.743 76.4965C301.01 76.6778 301.232 76.9196 301.389 77.2023C301.546 77.4849 301.634 77.8006 301.647 78.1237V88.592L310.072 97.5416C310.187 97.6571 310.266 97.8029 310.3 97.962C310.334 98.121 310.322 98.2865 310.265 98.4388C310.208 98.5911 310.108 98.7238 309.978 98.8212C309.847 98.9185 309.692 98.9765 309.53 98.988L301.674 98.4095V110.406C301.674 111.002 301.258 111.246 300.77 110.948L274.355 95.6704C274.088 95.4866 273.867 95.2431 273.71 94.959C273.553 94.675 273.464 94.3583 273.451 94.0341V61.7613C273.388 61.1556 273.813 60.9116 274.328 61.2189Z" fill="#588FE1"/>
<path d="M284.498 95.2364H284.227C283.891 95.1897 283.573 95.0603 283.3 94.8599C283.027 94.6595 282.808 94.3943 282.663 94.0883L279.408 87.236C279.179 86.7493 279.153 86.1916 279.335 85.6855C279.518 85.1795 279.893 84.7666 280.38 84.5376C280.867 84.3086 281.425 84.2824 281.931 84.4646C282.437 84.6469 282.85 85.0227 283.079 85.5094L285.004 89.496L294.306 78.648C294.666 78.2356 295.175 77.983 295.72 77.9457C296.266 77.9084 296.805 78.0895 297.217 78.4491C297.629 78.8088 297.882 79.3175 297.919 79.8634C297.957 80.4093 297.776 80.9476 297.416 81.36L286.071 94.5675C285.873 94.7869 285.63 94.9605 285.358 95.076C285.087 95.1916 284.793 95.2463 284.498 95.2364Z" fill="#FAFAFA"/>
</svg>
